<svg width="72" height="44" viewBox="0 0 72 44" fill="none" xmlns="http://www.w3.org/2000/svg">
<path d="M22.825 3.22501C21.6652 3.22501 20.725 4.16521 20.725 5.32501C20.725 6.4848 21.6652 7.42501 22.825 7.42501H54.4125C60.2115 7.42501 64.9125 12.126 64.9125 17.925C64.9125 23.724 60.2115 28.425 54.4125 28.425H20.4625V22.341C20.4625 20.7245 18.7125 19.7141 17.3125 20.5224L3.13753 28.7063C1.73753 29.5146 1.73752 31.5354 3.13752 32.3436L17.3125 40.5276C18.7125 41.3359 20.4625 40.3255 20.4625 38.7089V32.625H54.4125C62.5311 32.625 69.1125 26.0436 69.1125 17.925C69.1125 9.80642 62.5311 3.22501 54.4125 3.22501H22.825Z" fill="#F0EEEB"/>
</svg>
