<?xml version="1.0" encoding="UTF-8"?>
<svg id="Layer_2" data-name="Layer 2" xmlns="http://www.w3.org/2000/svg" xmlns:xlink="http://www.w3.org/1999/xlink" viewBox="0 0 318.12 332.56">
  <defs>
    <style>
      .cls-1, .cls-2, .cls-3, .cls-4, .cls-5, .cls-6, .cls-7, .cls-8, .cls-9, .cls-10, .cls-11, .cls-12, .cls-13, .cls-14 {
        fill: none;
      }

      .cls-2 {
        stroke-width: 3.67px;
      }

      .cls-2, .cls-3, .cls-4, .cls-5, .cls-6, .cls-7, .cls-8, .cls-9, .cls-10, .cls-11, .cls-12, .cls-13, .cls-14 {
        stroke: #000;
        stroke-miterlimit: 10;
      }

      .cls-3 {
        stroke-width: 3px;
      }

      .cls-15 {
        clip-path: url(#clippath);
      }

      .cls-4 {
        stroke-width: 2.33px;
      }

      .cls-5 {
        stroke-width: 3.17px;
      }

      .cls-6 {
        stroke-width: 2.5px;
      }

      .cls-7 {
        stroke-width: 3.83px;
      }

      .cls-8 {
        stroke-width: 2.67px;
      }

      .cls-9 {
        stroke-width: 2px;
      }

      .cls-10 {
        stroke-width: 4px;
      }

      .cls-11 {
        stroke-width: 3.33px;
      }

      .cls-12 {
        stroke-width: 2.17px;
      }

      .cls-13 {
        stroke-width: 3.5px;
      }

      .cls-14 {
        stroke-width: 2.83px;
      }
    </style>
    <clipPath id="clippath">
      <path class="cls-1" d="m255.31,78.73c-20.06-12.11-31.86-15.8-43.83-18.46-13.07-2.9-23.56-3.51-28.15-3.69-7.85-.3-21.15-.73-37.83,3.23-4.21,1-19.88,4.94-37.83,15.69-15.12,9.05-24.78,18.7-27.68,21.69-6.18,6.36-19.21,21.07-28.15,43.83-7.07,18-8.42,33.01-8.77,37.83-1.55,21.77,3.32,38.49,7.38,52.14,3.98,13.37,8.75,24.02,12.46,31.37,66.23-60.62,126.18-123.01,192.4-183.64Z"/>
    </clipPath>
  </defs>
  <g id="Layer_4" data-name="Layer 4">
    <path d="m47.5,193.8c0-73.15,58.71-131.86,131.86-131.86,25.43,0,48.98,6.91,69.07,19.46v112.39l.31,112.39c-20.09,12.24-43.95,19.46-69.38,19.46-46.46,0-87.28-23.55-110.82-59.65l53.37-51.49,90.1-.63.31,24.17h22.6V96.79l-170.47,162.31c-10.67-19.15-16.95-41.44-16.95-65.3Zm-6.91,0c0,76.6,62.16,138.76,138.76,138.76s138.76-62.16,138.76-138.76S255.96,55.03,179.36,55.03,40.59,117.19,40.59,193.8Zm171.1-64.99l.31,60.28h-63.42l63.1-60.28Z"/>
    <g class="cls-15">
      <g>
        <line class="cls-10" x1="192.3" y1="1.45" x2="1.38" y2="183.23"/>
        <line class="cls-7" x1="197.19" y1="7.21" x2="6.27" y2="188.99"/>
        <line class="cls-2" x1="202.08" y1="12.98" x2="11.16" y2="194.76"/>
        <line class="cls-13" x1="206.97" y1="18.74" x2="16.05" y2="200.52"/>
        <line class="cls-11" x1="211.86" y1="24.51" x2="20.94" y2="206.29"/>
        <line class="cls-5" x1="216.75" y1="30.27" x2="25.83" y2="212.05"/>
        <line class="cls-3" x1="221.64" y1="36.04" x2="30.72" y2="217.82"/>
        <line class="cls-14" x1="226.53" y1="41.8" x2="35.61" y2="223.58"/>
        <line class="cls-8" x1="231.42" y1="47.57" x2="40.49" y2="229.35"/>
        <line class="cls-6" x1="236.31" y1="53.33" x2="45.38" y2="235.11"/>
        <line class="cls-4" x1="241.2" y1="59.1" x2="50.27" y2="240.88"/>
        <line class="cls-12" x1="246.09" y1="64.86" x2="55.16" y2="246.64"/>
        <line class="cls-9" x1="250.98" y1="70.63" x2="60.05" y2="252.41"/>
      </g>
    </g>
  </g>
</svg>