<?xml version="1.0" encoding="UTF-8"?>
<svg id="Layer_2" data-name="Layer 2" xmlns="http://www.w3.org/2000/svg" viewBox="0 0 408.05 86.32">
  <g id="Layer_1-2" data-name="Layer 1">
    <g>
      <path d="m74.19,86.32l-12.48-29.05H21.58l-12.6,29.05H0L36.86,0h9.68l37.09,86.32h-9.45ZM41.76,9.8l-16.91,39.66h33.48L41.76,9.8Z"/>
      <path d="m339.68,10.38v75.94h51.44l-51.21-75.94h-.23Zm-174.86-2.57h-38.61v31.03h37.33v7.82h-37.33v31.85h38.61v7.82h166.22V0h-166.22v7.82ZM247.07,1.64c22.52,0,41.06,18.65,41.06,41.53s-18.54,41.53-41.06,41.53c-21.16,0-40.96-17.78-40.96-41.09S224.34,1.64,247.07,1.64Zm143.82,69.98h.23V0h-48.41l48.18,71.62ZM399.76,0v86.32h8.29V0h-8.29Zm-152.69,77.43c18.54,0,33.31-15.72,33.31-34.15s-14.77-34.37-33.42-34.37-33.1,16.05-33.1,34.7,15.19,33.83,33.21,33.83Zm-164.67,8.89h35.18V0H46.54l35.86,86.32Z"/>
    </g>
  </g>
</svg>