<?xml version="1.0" encoding="UTF-8"?>
<svg id="Layer_2" data-name="Layer 2" xmlns="http://www.w3.org/2000/svg" viewBox="0 0 883.81 883.81">
  <g id="Layer_2-2" data-name="Layer 2">
    <path d="m42.89,819.1h0s0,0,0-.01h-.01ZM883.81,0v883.81H0V0h883.81ZM9.5,11.28v19.76c7.77-6.22,15.67-12.29,23.53-18.36,1.35-1.05,2.68-2.12,4.03-3.18H11.64c-.72.59-1.43,1.19-2.14,1.78Zm0,32.03v19.75c13.76-12.21,28.44-23.35,43.02-34.52,6.34-4.9,12.6-9.87,18.85-14.83,1.74-1.38,3.46-2.79,5.16-4.21h-26.56c-13.47,11.3-27.26,22.24-40.47,33.81Zm0,33.62v21.09c4.71-5.3,9.67-10.38,14.89-15.16,15.07-13.77,31.38-26.11,47.61-38.46,6.4-4.91,12.73-9.89,19.05-14.85h.01c8.08-6.36,15.71-13.08,23.04-20.05h-26.25c-21.65,19.45-45.32,36.71-66.83,56.3-3.94,3.59-7.81,7.29-11.52,11.13Zm0,797.38h36.62c9.52-5.71,18.48-12.4,26.17-20.37,10.29-10.69,18.48-22.77,25.81-35.42,17.98-31.05,30.77-65.57,56.67-91.45,22.87-22.98,54.35-32.17,82.03-47.38,7.6-4.18,14.93-8.78,21.68-14.28,33.75-27.51,42.05-72.47,52.95-112.52,3.02-11.17,6.21-22.4,10.26-33.3,5.69-15.3,13-30.01,21.7-43.82,4.54-7.14,9.34-14,14.36-20.6,14.55-19.12,31.05-36.13,48.91-51.62,17.54-15.21,36.33-29,55.76-42.1,6.24-4.21,12.55-8.33,18.89-12.42,1.44.92,2.87,1.84,4.3,2.78-22.16,14.35-43.82,29.29-64.1,45.89-6.96,5.69-13.77,11.59-20.36,17.73-13.44,12.51-26.03,26.02-37.54,40.83-16.73,21.66-30.19,45.95-38.86,71.96-2.68,8.03-5.05,16.31-7.28,24.72-11.01,41.52-19.15,85.7-52.14,115.16-10.56,9.42-23.14,16.71-35.69,22.86-18.24,8.94-34.8,15.77-49.63,25.25-13.8,8.82-25.97,19.93-37.04,36.6-22.51,33.9-35.48,74.78-63.92,105.1h0c-5.69,6.07-12.14,11.54-18.98,16.4h29.87c.23-.24.47-.47.7-.71,35.47-37.56,44.74-92.53,81.23-129.46,29.19-29.71,73.05-35.92,104.98-61.24,34.22-27.55,42.36-72.88,53.11-113.22,2.97-11.26,6.17-22.57,10.18-33.56,5.73-15.4,13.04-30.21,21.83-44.09,35.47-55.52,86.44-93.72,140.73-128.26,1.28.97,2.56,1.94,3.83,2.93-46.16,29.48-90.02,61.68-124.4,105.46-16.96,21.72-30.67,46.09-39.26,72.31-16,47.84-19.09,105.42-59.52,140.78-10.69,9.44-23.55,16.51-36.24,22.63-36.01,16.84-64.79,26.5-87.28,62.04-21.79,33.24-33.62,73.79-60.04,104.39h20.19c20.57-28.1,32.36-62.07,51.87-91,5.2-7.7,10.94-15.04,17.56-21.8,28.88-29.66,71.79-36.75,103.24-62.3,10.23-8.31,18.13-18.25,24.56-29.08,14.88-25.08,21.79-55.11,29.85-82.82,3.22-11.1,6.64-22.25,10.83-33.12,5.91-15.17,13.3-29.84,22.06-43.63,10.4-16.23,22.03-31.06,34.63-44.79,31.14-33.94,68.19-61.19,106.97-86.65,1.3,1.14,2.59,2.28,3.87,3.44-46.42,30.68-90.5,64-125.37,108.8-13.84,17.9-25.62,37.49-34.36,58.32-1.84,4.38-3.53,8.82-5.1,13.31-12.29,35.11-18.07,75.19-36.55,108.04-6.36,11.31-14.26,21.72-24.44,30.8-10.57,9.42-23.13,16.74-35.61,22.94-14.55,7.23-28,13.09-40.28,20.12-17.35,9.92-32.31,22.1-45.57,42.56-2.52,3.88-4.96,7.82-7.29,11.84h0c-14.16,24.52-25.01,51.5-40.94,75.02h17.73c14.79-23.95,25.91-50.4,41.83-73.78,5.2-7.65,10.92-14.95,17.47-21.7,28.57-29.61,70.45-37.7,101.5-63.36,10.08-8.33,17.96-18.2,24.44-28.93,15.07-24.87,22.64-54.36,31.27-81.63,3.47-10.95,7.12-21.93,11.49-32.68,6.09-14.95,13.55-29.46,22.28-43.17,10.35-16.12,21.83-30.94,34.21-44.71,31.14-34.62,67.96-62.7,106.63-88.97,1.29,1.31,2.57,2.64,3.84,3.98-46.06,31.62-89.7,65.85-124.64,111.17-13.68,17.85-25.44,37.28-34.4,57.84-1.89,4.33-3.63,8.7-5.26,13.12-12.79,34.59-19.47,73.8-38.12,106.28-6.42,11.18-14.28,21.53-24.32,30.61-10.44,9.44-22.74,16.89-34.99,23.26-14.22,7.4-27.4,13.47-39.46,20.67-17.03,10.13-31.79,22.45-44.96,42.66-2.51,3.85-4.96,7.76-7.3,11.74h-.01c-10.97,18.72-20.13,38.77-31.11,57.6h16.33c10.73-18.92,20.4-38.58,32.76-56.57,5.22-7.58,10.91-14.84,17.39-21.59,28.25-29.56,69.09-38.64,99.75-64.42,9.94-8.36,17.79-18.17,24.33-28.79,15.24-24.68,23.49-53.62,32.68-80.45,3.71-10.79,7.59-21.62,12.14-32.24,6.28-14.72,13.81-29.09,22.51-42.71,10.31-16.01,21.64-30.82,33.8-44.63,30.72-34.87,66.76-63.51,104.78-90.33,1.28,1.51,2.53,3.02,3.78,4.55-45.15,32.29-87.74,67.2-122.38,112.56-13.52,17.8-25.27,37.07-34.44,57.36-1.93,4.26-3.73,8.58-5.42,12.92-13.29,34.06-20.87,72.4-39.7,104.52-6.48,11.06-14.32,21.34-24.21,30.43-10.3,9.46-22.35,17.04-34.36,23.58-13.91,7.57-26.81,13.86-38.65,21.22-16.69,10.36-31.25,22.82-44.34,42.77-2.51,3.83-4.97,7.7-7.31,11.64h0c-7.78,13.07-14.74,26.75-22.06,40.18h15.56c7.52-13.33,15.02-26.72,23.78-39.34,5.22-7.53,10.89-14.75,17.3-21.49,27.94-29.51,67.74-39.59,98.01-65.48,9.8-8.38,17.62-18.14,24.22-28.65,15.43-24.48,24.35-52.86,34.1-79.26,3.96-10.62,8.07-21.29,12.8-31.79,6.47-14.49,14.07-28.71,22.74-42.25,10.26-15.9,21.44-30.69,33.38-44.54,29.94-34.68,64.69-63.62,101.54-90.69,1.24,1.7,2.46,3.43,3.67,5.16-43.7,32.67-84.7,68-118.67,112.9-13.35,17.75-25.09,36.86-34.48,56.88-1.97,4.2-3.82,8.45-5.58,12.72-13.79,33.54-22.28,71.01-41.28,102.76-6.55,10.94-14.35,21.16-24.1,30.25-10.16,9.49-21.97,17.2-33.74,23.9-13.58,7.73-26.21,14.23-37.83,21.76-16.37,10.57-30.73,23.17-43.73,42.87-2.51,3.8-4.97,7.63-7.32,11.54h-.01c-4.5,7.44-8.75,15.08-12.96,22.75h15.38c4.5-7.5,9.15-14.92,14.19-22.12,5.23-7.46,10.87-14.65,17.21-21.38,27.63-29.46,66.39-40.54,96.27-66.54,9.66-8.41,17.45-18.11,24.11-28.51,15.6-24.28,25.19-52.11,35.51-78.07,4.2-10.46,8.57-20.96,13.45-31.35,6.7-14.25,14.32-28.33,22.97-41.79,10.22-15.79,21.25-30.57,32.97-44.46,28.78-34.05,61.78-62.95,96.95-89.97,1.2,1.93,2.38,3.86,3.55,5.81-41.73,32.73-80.68,68.16-113.61,112.12-13.19,17.7-24.91,36.65-34.52,56.4-2.02,4.14-3.92,8.32-5.74,12.52-14.29,33.03-23.68,69.62-42.85,101.01-6.6,10.81-14.38,20.96-23.98,30.06-10.03,9.5-21.59,17.34-33.12,24.21-13.26,7.9-25.63,14.61-37.02,22.31-16.03,10.8-30.19,23.53-43.11,42.98-2.51,3.77-4.97,7.57-7.33,11.44v-.02c-1.1,1.77-2.16,3.56-3.22,5.35h15.81c1.1-1.63,2.22-3.24,3.35-4.85,5.23-7.4,10.85-14.56,17.12-21.28,27.31-29.41,65.04-41.48,94.53-67.6,9.52-8.43,17.29-18.08,24-28.37,15.78-24.09,25.98-51.4,36.92-76.89,4.43-10.31,9.06-20.64,14.11-30.91,6.89-14.02,14.57-27.96,23.19-41.33,10.17-15.68,21.05-30.45,32.55-44.38,27.31-33.02,58.18-61.55,91.24-88.22,1.18,2.15,2.34,4.31,3.48,6.48-39.34,32.5-75.89,67.69-107.48,110.28-13.02,17.65-24.73,36.45-34.56,55.92-2.07,4.07-4.03,8.19-5.91,12.32-14.79,32.5-25.08,68.22-44.43,99.25-6.67,10.69-14.41,20.78-23.87,29.88-9.89,9.52-21.2,17.49-32.49,24.53-12.93,8.06-25.03,14.98-36.2,22.85-15.5,10.86-29.29,23.55-41.98,42.32h16.79c2.44-3,4.97-5.95,7.61-8.81,27.01-29.36,63.65-42.48,92.79-68.66,9.36-8.47,17.11-18.04,23.88-28.22,15.96-23.89,26.82-50.66,38.34-75.7,4.67-10.16,9.54-20.32,14.76-30.47,7.09-13.79,14.83-27.58,23.42-40.87,10.13-15.57,20.86-30.33,32.14-44.3,25.6-31.62,54.1-59.45,84.71-85.49,1.17,2.37,2.32,4.74,3.46,7.12-36.64,32-70.57,66.64-100.58,107.51-12.85,17.6-24.55,36.24-34.59,55.44-2.11,4.02-4.13,8.06-6.07,12.12-15.29,31.98-26.49,66.83-46,97.49-6.73,10.57-14.44,20.59-23.75,29.69-9.75,9.54-20.81,17.64-31.87,24.85-12.61,8.23-24.44,15.36-35.39,23.4-9.86,7.2-19.05,15.14-27.73,24.9h18.45c25.46-23.8,56.8-37.59,82.61-61.21,9.22-8.49,16.94-18.01,23.77-28.08,16.13-23.68,27.66-49.91,39.75-74.51,4.91-10,10.02-19.99,15.41-30.03,7.28-13.56,15.09-27.2,23.65-40.41,10.09-15.46,20.67-30.21,31.73-44.21,23.72-29.95,49.7-56.8,77.66-81.96,1.18,2.58,2.37,5.16,3.54,7.75-33.76,31.28-64.98,65.04-93.25,103.94-12.69,17.55-24.37,36.03-34.63,54.96-2.16,3.96-4.23,7.94-6.23,11.93-15.8,31.45-27.89,65.43-47.58,95.73-6.79,10.44-14.47,20.4-23.64,29.51-9.61,9.55-20.43,17.78-31.24,25.16-12.29,8.39-23.84,15.74-34.57,23.95h-.01c-3.16,2.4-6.24,4.89-9.27,7.48h20.13c20.01-14.92,41.45-27.45,60.18-44.91,9.08-8.51,16.77-17.98,23.66-27.94,16.32-23.49,28.51-49.18,41.17-73.33,5.16-9.84,10.51-19.67,16.07-29.59,7.48-13.33,15.35-26.83,23.88-39.95,10.04-15.35,20.47-30.09,31.31-44.13,21.81-28.19,45.37-53.88,70.69-78.05,1.25,2.78,2.5,5.57,3.75,8.35-30.94,30.45-59.62,63.14-86.14,100.02-12.52,17.5-24.19,35.82-34.67,54.48-2.2,3.9-4.32,7.81-6.39,11.73-16.31,30.93-29.3,64.04-49.16,93.97-6.85,10.32-14.5,20.2-23.53,29.32-9.48,9.57-20.05,17.93-30.62,25.48h0c-7.09,5.08-13.94,9.8-20.53,14.55h20.44c12.28-8.88,24.51-17.91,35.82-28.66,8.94-8.53,16.6-17.95,23.55-27.8,16.49-23.29,29.36-48.43,42.58-72.14,5.4-9.68,10.98-19.35,16.72-29.15,7.67-13.09,15.6-26.45,24.1-39.49,10-15.24,20.28-29.97,30.9-44.05,19.85-26.24,40.97-50.53,63.6-73.5,1.34,2.94,2.69,5.87,4.06,8.8-28.12,29.43-54.29,60.88-79.01,95.62-12.36,17.45-23.97,35.64-34.71,54-2.24,3.84-4.42,7.68-6.55,11.53-16.8,30.41-30.69,62.65-50.73,92.22-6.91,10.2-14.53,20.02-23.41,29.14-8.42,8.64-17.63,16.38-26.93,23.48h17.73c4.71-3.94,9.35-8.02,13.85-12.38,8.8-8.56,16.44-17.92,23.44-27.66,16.67-23.09,30.2-47.69,43.99-70.95,5.65-9.53,11.47-19.03,17.38-28.71,7.86-12.86,15.85-26.08,24.33-39.03,9.94-15.13,20.08-29.84,30.48-43.96,17.99-24.34,36.86-47.2,56.98-68.92,1.49,3.03,2.99,6.05,4.52,9.06-25.55,28.44-49.44,58.64-72.48,91.37-12.19,17.4-23.79,35.43-34.75,53.52-2.29,3.77-4.53,7.55-6.72,11.33-17.31,29.89-32.1,61.26-52.31,90.46-6.97,10.08-14.56,19.84-23.3,28.96h0c-2.27,2.36-4.6,4.66-6.97,6.91h15.02c7.1-7.47,13.49-15.41,19.49-23.6,16.85-22.9,31.06-46.95,45.41-69.77,5.89-9.37,11.94-18.71,18.03-28.27,8.05-12.63,16.11-25.7,24.56-38.57,9.9-15.02,19.89-29.72,30.07-43.88,16.32-22.63,33.24-44.13,51.18-64.69.66,1.22,1.32,2.45,2,3.66,1.02,1.83,2.05,3.65,3.09,5.47-23.35,27.56-45.32,56.64-66.91,87.66-12.03,17.35-23.61,35.23-34.79,53.04-2.34,3.71-4.63,7.42-6.88,11.13-17.81,29.36-33.5,59.86-53.88,88.7h0c-4.6,6.52-9.45,12.92-14.64,19.12h12.86c1.88-2.38,3.74-4.77,5.55-7.19,17.03-22.7,31.9-46.2,46.82-68.58,6.14-9.21,12.42-18.39,18.69-27.83,8.24-12.41,16.37-25.32,24.79-38.11,9.85-14.91,19.69-29.6,29.65-43.8,14.96-21.24,30.29-41.62,46.45-61.22,1.88,3.04,3.78,6.06,5.72,9.05-21.58,26.93-42,55.18-62.44,84.87-11.86,17.3-23.42,35.03-34.83,52.56-2.38,3.66-4.73,7.3-7.04,10.94-18.32,28.83-34.91,58.47-55.46,86.94h0c-.57.79-1.15,1.58-1.73,2.37h11.98c14.49-19.52,27.95-39.22,41.31-58.16,6.38-9.05,12.89-18.07,19.34-27.39,8.43-12.18,16.63-24.95,25.02-37.65,9.81-14.79,19.5-29.47,29.24-43.71,13.88-20.2,27.95-39.76,42.72-58.65,2.07,3,4.17,5.98,6.29,8.93-20.18,26.55-39.36,54.26-58.93,83-11.7,17.25-23.24,34.82-34.87,52.08-2.42,3.6-4.83,7.17-7.2,10.74h-.01c-15.63,23.51-30.36,47.31-46.77,70.81h12.13c10.26-13.71,20.25-27.32,30.14-40.57,6.64-8.89,13.37-17.74,20-26.94,8.61-11.95,16.88-24.57,25.24-37.19,9.76-14.69,19.3-29.35,28.82-43.63,13.06-19.49,26.16-38.5,39.86-56.94,2.24,2.96,4.51,5.89,6.81,8.8-19.08,26.43-37.31,53.87-56.24,82.01-11.54,17.21-23.06,34.63-34.91,51.61-2.47,3.54-4.93,7.04-7.36,10.54h0c-12.12,17.41-23.88,34.87-36.1,52.31h12.95c6.05-7.73,12.06-15.41,18.02-22.97,6.88-8.73,13.84-17.42,20.65-26.5,8.79-11.73,17.13-24.19,25.47-36.73,9.72-14.58,19.11-29.23,28.41-43.55,12.46-19.08,24.84-37.81,37.74-56.04,2.39,2.91,4.81,5.79,7.26,8.65-18.22,26.57-35.71,54.03-54.22,81.86-11.37,17.16-22.87,34.43-34.95,51.13-2.51,3.47-5.03,6.91-7.52,10.34h0c-8.22,11.29-16.37,22.55-24.57,33.81h14.38c1.48-1.78,2.97-3.58,4.44-5.35,7.13-8.57,14.31-17.11,21.3-26.06,8.98-11.5,17.39-23.82,25.7-36.27,9.67-14.46,18.9-29.11,27.99-43.46,12.05-18.95,23.91-37.65,36.23-55.92,2.54,2.85,5.09,5.68,7.67,8.49-17.58,26.94-34.49,54.67-52.76,82.48-11.2,17.11-22.68,34.23-34.98,50.65-2.56,3.41-5.13,6.78-7.69,10.14h0c-3.9,5.12-7.79,10.21-11.69,15.3h16c3.8-4.39,7.56-8.82,11.26-13.38,9.16-11.28,17.65-23.44,25.93-35.81,9.63-14.35,18.71-28.99,27.58-43.38,11.8-19.06,23.29-37.98,35.21-56.51,2.65,2.8,5.32,5.57,8.01,8.33-17.08,27.54-33.54,55.8-51.73,83.83-11.03,17.06-22.5,34.02-35.02,50.17-1.76,2.27-3.53,4.52-5.31,6.75h16.95c7.85-9.72,15.18-20.08,22.28-30.65,9.58-14.25,18.51-28.87,27.16-43.3,11.68-19.4,22.92-38.77,34.58-57.77,2.75,2.74,5.52,5.46,8.3,8.16-16.7,28.36-32.79,57.38-51.03,85.84h0c-8.18,12.8-16.68,25.47-25.82,37.72h16.25c2.89-4.01,5.75-8.06,8.53-12.18,9.54-14.13,18.32-28.74,26.75-43.21,11.67-19.94,22.72-39.97,34.22-59.65.38.36.76.73,1.14,1.09,2.46,2.33,4.93,4.63,7.41,6.93-16.4,29.38-32.17,59.4-50.57,88.47h0c-3.94,6.23-7.99,12.43-12.16,18.55h15.37c7.86-12.05,15.15-24.45,22.13-36.78,11.74-20.65,22.69-41.53,34.11-62.05,2.89,2.63,5.79,5.25,8.7,7.85-16.04,30.36-31.4,61.33-49.87,90.98h14.51c3.47-5.91,6.82-11.87,10.09-17.82,11.92-21.59,22.82-43.56,34.26-65.17,2.93,2.57,5.86,5.13,8.8,7.68h0c-12.55,25.12-24.62,50.61-38.39,75.31h13.75c11.84-22.25,22.51-45.03,33.79-67.42,2.94,2.51,5.87,5.01,8.82,7.51h-.01c-9.41,19.93-18.46,40.12-28.3,59.91h12.88c8.35-17.34,16.24-34.89,24.54-52.23,1.67,1.41,3.34,2.81,5.01,4.21,1.14.95,2.43,1.94,3.83,2.97h-.01c-6.67,14.97-13.1,30.08-19.78,45.05h12.37c5.66-12.77,11.22-25.59,17.03-38.3.97.68,1.96,1.38,2.94,2.08v-40.65c-28.68-21.64-56.08-45.13-81.86-70.16-42.4-41.54-84.53-85.27-112.7-137.07-34.58-64.62-60.85-138.31-111.99-193.9-26.12-28.73-57.1-52.89-91.29-71.23-19.64-11.09-42.81-16.31-61.8-27.55-19.28-12.49-39.19-25.08-54.05-42.63-12.3-14.26-20.48-34.34-14.64-52.87,2.4-6.78,6.27-12.33,11.76-17.78,15.35-14.98,37.49-23.86,52.58-39.86,6.02-6.43,11.11-13.45,14.16-22.12,5.73-16.25-1.35-31.71-16.69-39.12-3.96-2-7.8-3.38-11.41-4.59-27.88-9.18-55.67-18.33-83.74-26.98-29.67-9.2-59.96-17.82-90.13-25.3-19.16-4.68-39.82-9.22-59.24-12.75-6.34-1.27-15.17-2.56-21.71-3.73-.63-.1-1.26-.2-1.9-.3h-16.96c.5.08,1,.15,1.51.23-2.45,2.45-4.94,4.87-7.48,7.26-24.37,22.85-51.92,42.2-76.67,64.62-5.86,5.3-11.57,10.8-16.82,16.68-4.87,5.45-9.43,11.13-13.74,17v22.75c9.96-14.14,21.18-27.46,33.96-39.14,15.19-13.85,31.63-26.26,48.02-38.65h0c6.47-4.92,12.87-9.9,19.26-14.86,12.74-9.89,24.5-20.58,35.61-31.82,2.73.52,5.45,1.04,8.17,1.58-5.74,6.05-11.68,11.94-17.88,17.64-24.77,22.72-52.56,42.13-77.54,64.63-5.91,5.32-11.68,10.84-17,16.73-10.95,12.14-20.48,25.38-29,39.41-1.23,2.02-2.41,4.08-3.59,6.13v23.97c.27-.47.52-.95.79-1.42,3.7-6.48,7.59-12.81,11.68-18.99,11.59-17.57,24.97-34.12,40.56-48.32,15.32-13.92,31.88-26.41,48.43-38.83,6.53-4.93,13-9.91,19.46-14.87,16.6-12.75,31.68-26.73,45.87-41.49,2.53.57,5.06,1.14,7.58,1.73-8.67,9.38-17.72,18.46-27.34,27.11-25.18,22.59-53.2,42.06-78.41,64.64-5.96,5.33-11.78,10.88-17.17,16.78-11.08,12.16-20.78,25.42-29.45,39.49h-.01c-8.28,13.48-15.52,27.69-21.99,42.23v25.5c5.74-13.24,12.09-26.21,19.26-38.69,3.75-6.51,7.69-12.87,11.83-19.07,11.75-17.65,25.31-34.23,41.02-48.5,15.43-13.99,32.12-26.55,48.83-39.01,6.59-4.95,13.13-9.93,19.66-14.89,20.21-15.34,38.37-32.35,55.43-50.32,2.36.6,4.72,1.21,7.07,1.83-11.38,12.46-23.3,24.47-36.16,35.79-25.58,22.47-53.84,42-79.28,64.66-6.02,5.36-11.9,10.92-17.35,16.84-11.21,12.18-21.07,25.45-29.9,39.56-12.93,20.72-23.39,43.18-32.15,66.07-2.77,7.17-5.41,14.41-8.01,21.64-.08.23-.17.46-.25.69v27.14c2.21-5.84,4.38-11.69,6.58-17.49,3.67-9.76,7.42-19.53,11.52-29.15,5.8-13.53,12.28-26.78,19.62-39.48,3.8-6.54,7.78-12.93,11.98-19.16,11.92-17.73,25.65-34.34,41.49-48.68,15.56-14.06,32.37-26.69,49.24-39.19,6.65-4.95,13.25-9.94,19.86-14.9,23.61-17.72,44.66-37.49,64.48-58.41,2.22.63,4.43,1.26,6.65,1.9-13.98,15.29-28.62,30.01-44.58,43.76-25.99,22.34-54.48,41.93-80.15,64.67-6.08,5.38-12.01,10.96-17.53,16.89-11.34,12.19-21.36,25.48-30.35,39.63-13.16,20.77-23.8,43.34-32.55,66.41h.02c-2.76,7.23-5.38,14.53-7.97,21.83-5.92,16.86-11.66,33.38-18.31,49.14v23.95c9.84-20.01,17.23-41.49,24.97-62.36,3.63-9.85,7.35-19.71,11.44-29.41,5.79-13.64,12.32-26.98,19.75-39.75,3.85-6.58,7.88-13,12.13-19.25,12.08-17.83,25.98-34.46,41.95-48.87,15.69-14.13,32.62-26.83,49.65-39.37,6.71-4.96,13.38-9.95,20.06-14.91,26.84-19.94,50.7-42.25,73.21-65.88,2.11.64,4.21,1.29,6.31,1.94-16.51,17.92-33.79,35.15-52.74,51.14-26.39,22.21-55.12,41.86-81.02,64.68-6.13,5.4-12.11,11-17.7,16.94-11.47,12.22-21.65,25.52-30.8,39.71-13.38,20.83-24.2,43.5-32.94,66.76-2.75,7.27-5.35,14.63-7.92,22h-.01c-10.48,30.39-20.28,59.93-36.34,85.52v19.33c20.8-27.44,31.65-61.41,43.41-93.75,3.59-9.94,7.27-19.89,11.36-29.67,5.79-13.75,12.37-27.18,19.88-40.02,3.89-6.62,7.98-13.07,12.28-19.34,12.24-17.91,26.32-34.56,42.41-49.05,15.81-14.2,32.87-26.98,50.06-39.55,6.77-4.98,13.51-9.97,20.26-14.93,29.95-22.01,56.58-46.66,81.74-72.82,2,.65,4,1.3,6,1.96-19.02,20.4-38.88,39.95-60.75,58.02-26.8,22.09-55.76,41.8-81.89,64.7-6.19,5.41-12.22,11.03-17.88,16.99-11.6,12.23-21.95,25.55-31.25,39.78-13.61,20.88-24.61,43.67-33.34,67.11-2.75,7.33-5.34,14.75-7.88,22.19-13.03,38.41-24.81,75.77-50.17,105.13h.01c-1.38,1.6-2.8,3.17-4.25,4.71v15.83c3.77-3.42,7.42-6.98,10.89-10.76,26.32-28.7,38.02-67.17,50.94-103.43,3.55-10.03,7.2-20.07,11.28-29.93,5.78-13.86,12.41-27.38,20.01-40.29,3.94-6.65,8.08-13.13,12.43-19.43,12.41-17.99,26.66-34.67,42.88-49.23,15.93-14.28,33.11-27.13,50.46-39.74,6.83-4.99,13.64-9.98,20.46-14.94,32.99-23.99,62.38-50.78,90.16-79.33,1.92.64,3.84,1.3,5.75,1.95-21.5,22.74-43.93,44.46-68.68,64.48-27.2,21.96-56.4,41.73-82.76,64.71-6.25,5.44-12.34,11.08-18.06,17.05-11.74,12.26-22.24,25.58-31.7,39.86-13.83,20.93-25.01,43.82-33.73,67.45-2.75,7.38-5.32,14.86-7.84,22.37-12.88,38.63-24.41,76.48-50.31,105.85-6.74,7.65-14.24,14.6-22.18,20.99v14.11c3.99-2.86,7.92-5.8,11.73-8.89,6.14-4.97,11.98-10.25,17.44-16.04,26.88-28.61,38.33-67.57,51.09-104.13,3.5-10.12,7.12-20.25,11.2-30.19,5.78-13.97,12.46-27.59,20.14-40.57,3.98-6.69,8.17-13.2,12.57-19.52,12.57-18.08,26.99-34.79,43.34-49.42,16.05-14.35,33.36-27.27,50.87-39.92,6.88-5,13.77-10,20.66-14.96,35.96-25.87,68.16-54.65,98.54-85.5,1.84.65,3.69,1.29,5.53,1.94-24,25.02-49.03,48.76-76.63,70.63-27.61,21.82-57.04,41.66-83.63,64.72-6.3,5.46-12.45,11.12-18.24,17.1-11.87,12.27-22.53,25.61-32.15,39.93-14.05,20.99-25.42,43.99-34.13,67.8-2.74,7.43-5.29,14.97-7.79,22.55-12.74,38.86-24.01,77.19-50.45,106.57-8.68,9.64-18.6,18.13-29.09,25.69h.02c-3.67,2.66-7.35,5.2-11.02,7.68v13.49c10.14-6.52,20.2-13.08,29.64-20.49,6.25-4.91,12.22-10.14,17.79-15.9,27.45-28.53,38.64-67.98,51.25-104.83,3.47-10.19,7.06-20.42,11.13-30.44,5.78-14.08,12.5-27.79,20.27-40.84,4.03-6.73,8.27-13.27,12.72-19.61,12.73-18.17,27.33-34.9,43.8-49.6,16.18-14.42,33.61-27.41,51.28-40.1,6.94-5.01,13.89-10.01,20.86-14.97,38.9-27.7,73.97-58.32,106.95-91.43,1.78.63,3.57,1.27,5.35,1.9-26.5,27.25-54.19,52.9-84.65,76.55-28.01,21.7-57.67,41.6-84.5,64.74-6.35,5.47-12.55,11.16-18.41,17.15-12,12.3-22.82,25.65-32.6,40.01-14.27,21.05-25.82,44.15-34.52,68.15-2.74,7.47-5.27,15.08-7.75,22.73-12.59,39.08-23.61,77.89-50.59,107.28-8.84,9.63-18.97,18.02-29.64,25.46v-.02c-9.52,6.65-18.99,12.61-28.38,18.69v13.73c15.94-10.5,32.49-19.82,47.55-31.25,6.38-4.84,12.47-10.01,18.15-15.75,28.01-28.45,38.95-68.39,51.4-105.53,3.43-10.28,6.98-20.6,11.05-30.7,5.77-14.19,12.55-27.99,20.4-41.11,4.08-6.77,8.36-13.33,12.87-19.7,12.9-18.25,27.67-35.01,44.27-49.78,16.31-14.49,33.86-27.56,51.69-40.28,7.01-5.02,14.03-10.02,21.07-14.98,41.68-29.38,79.59-61.56,115.02-96.77,1.54.81,3.03,1.69,4.41,2.68-28.64,29.01-58.69,56.04-91.56,81.05-28.42,21.57-58.31,41.52-85.37,64.75-6.41,5.5-12.67,11.2-18.59,17.21-12.13,12.31-23.12,25.68-33.05,40.08-14.49,21.1-26.17,44.33-34.91,68.49-2.72,7.53-5.26,15.2-7.71,22.91-12.45,39.3-23.2,78.6-50.73,108-9,9.6-19.35,17.9-30.19,25.22-14.82,10.01-29.38,18.34-43.59,28.1h-.01c-.73.5-1.45,1.02-2.17,1.53v15.02c20.85-16.25,44.57-27.65,65.51-43.04,6.5-4.77,12.71-9.89,18.5-15.6,28.58-28.37,39.26-68.8,51.56-106.23,3.39-10.37,6.91-20.78,10.97-30.96,5.77-14.3,12.59-28.19,20.53-41.38,4.12-6.8,8.46-13.4,13.02-19.79,13.06-18.34,28.01-35.12,44.73-49.97,16.42-14.56,34.1-27.7,52.09-40.46,7.07-5.04,14.16-10.04,21.27-15,38.63-26.95,74.53-55.87,108.12-87.47-1.01,4.26-3.05,8.46-5.68,12.31-7.26,6.77-14.63,13.42-22.12,19.95-18.36,12.41-39.18,22.29-50.11,40.53-.71.53-1.4,1.06-2.11,1.59-28.82,21.44-58.95,41.45-86.24,64.76-6.47,5.52-12.78,11.24-18.77,17.26-12.26,12.34-23.41,25.72-33.5,40.16-14.72,21.16-26.58,44.49-35.31,68.84-2.72,7.58-5.24,15.31-7.67,23.09-12.3,39.52-22.8,79.3-50.87,108.71-9.15,9.59-19.73,17.79-30.74,24.99-15.17,9.9-29.93,18.08-44.2,27.81h.01c-6.54,4.48-12.85,9.28-18.99,14.6v17.57c2.8-2.83,5.68-5.62,8.69-8.32,22.67-20.45,50.53-32.4,74.73-49.61,6.62-4.7,12.96-9.76,18.85-15.45,29.14-28.29,39.57-69.21,51.71-106.93,3.34-10.46,6.83-20.96,10.89-31.22,5.76-14.41,12.64-28.39,20.66-41.65,4.17-6.84,8.56-13.47,13.17-19.88,13.24-18.43,28.35-35.23,45.2-50.15,16.55-14.64,34.35-27.85,52.5-40.65,7.13-5.04,14.29-10.05,21.47-15.01,1.1-.76,2.19-1.52,3.28-2.28.05,2.23.23,4.47.52,6.71-21.35,15.15-42.71,30.32-62.59,47.21-6.52,5.54-12.88,11.28-18.94,17.31-12.38,12.35-23.69,25.75-33.94,40.23-14.94,21.22-26.97,44.66-35.7,69.19-2.71,7.63-5.21,15.42-7.62,23.27-12.16,39.74-22.39,80.02-51.01,109.43-9.31,9.57-20.1,17.67-31.29,24.75-15.5,9.81-30.47,17.83-44.8,27.53-12.7,8.62-24.46,18.5-35.78,31.43v20.87c7.8-9.8,16.16-19.27,25.73-27.99,22.7-20.77,51.01-32.37,75.65-49.33,6.75-4.64,13.21-9.65,19.21-15.31,29.71-28.21,39.88-69.62,51.87-107.63,3.3-10.55,6.74-21.14,10.81-31.48,5.73-14.53,12.68-28.6,20.79-41.92,4.22-6.88,8.66-13.53,13.32-19.97,13.4-18.52,28.68-35.35,45.66-50.34,16.67-14.71,34.6-27.99,52.91-40.83,3.63-2.55,7.26-5.09,10.9-7.61.76,1.82,1.59,3.61,2.48,5.36-17.52,12.39-34.83,25.04-51.15,38.84-6.58,5.55-13,11.31-19.12,17.36-12.52,12.38-23.98,25.79-34.39,40.31-15.17,21.27-27.38,44.81-36.1,69.53-2.71,7.68-5.19,15.53-7.58,23.45-12.01,39.97-21.99,80.73-51.15,110.15-9.47,9.55-20.48,17.56-31.84,24.52-15.84,9.7-31,17.57-45.4,27.24-13.25,8.93-25.41,19.31-37.03,33.32h-.03c-5.41,6.53-10.53,13.24-15.54,20.01v24.02c12.73-18.45,25.72-36.8,42.82-52.59,22.73-21.08,51.49-32.34,76.56-49.05,6.87-4.57,13.46-9.51,19.56-15.16,30.32-28.07,40.19-70.03,52.02-108.33,3.26-10.64,6.66-21.32,10.73-31.74,5.72-14.64,12.73-28.8,20.92-42.19,4.26-6.92,8.75-13.6,13.46-20.06,13.56-18.6,29.02-35.46,46.12-50.52,16.79-14.78,34.84-28.14,53.31-41.01,1.28-.9,2.58-1.78,3.87-2.68,1.19,1.5,2.41,2.97,3.66,4.41-15.68,11.09-31.11,22.49-45.75,34.81-6.63,5.58-13.11,11.36-19.3,17.42-12.65,12.39-24.28,25.82-34.84,40.38-15.39,21.33-27.78,44.98-36.49,69.88-2.71,7.73-5.18,15.64-7.54,23.63-11.87,40.18-21.58,81.43-51.29,110.86-9.62,9.53-20.86,17.44-32.39,24.28-16.19,9.6-31.55,17.31-46.01,26.96-13.33,8.91-25.48,19.4-37.03,33.79h0c-11.62,14.49-21.77,29.92-32.4,45.02v26.32c19.14-27.02,34.8-56.46,59.88-79.94,22.75-21.4,51.96-32.31,77.47-48.77,6.99-4.5,13.7-9.39,19.91-15.01,30.9-27.97,40.5-70.42,52.18-109.02,3.22-10.73,6.58-21.5,10.65-32,5.72-14.75,12.77-29,21.05-42.46,4.3-6.95,8.85-13.66,13.61-20.15,13.73-18.69,29.36-35.57,46.59-50.7,16.92-14.85,35.09-28.28,53.72-41.19.38-.27.77-.53,1.16-.8,1.43,1.28,2.87,2.53,4.34,3.77-15.15,10.67-30.02,21.67-44.17,33.52-6.68,5.6-13.21,11.4-19.47,17.47-12.78,12.42-24.57,25.86-35.29,40.46-15.62,21.39-28.18,45.15-36.89,70.23-2.71,7.79-5.16,15.76-7.5,23.82-11.73,40.41-21.19,82.14-51.44,111.58-9.78,9.51-21.24,17.32-32.94,24.04-16.52,9.49-32.09,17.05-46.61,26.67-13.4,8.9-25.56,19.49-37.03,34.26v-.02c-17.61,22.69-31.52,47.89-49.22,70.54v26.29c5.96-6.82,11.37-14,16.46-21.39,19.48-28.3,34.71-59.53,60.49-84,22.77-21.72,52.44-32.29,78.38-48.5,7.11-4.44,13.95-9.27,20.27-14.87,31.47-27.89,40.81-70.84,52.33-109.73,3.17-10.82,6.51-21.68,10.57-32.26,5.71-14.87,12.82-29.21,21.18-42.74,4.35-6.99,8.94-13.73,13.76-20.24,13.89-18.78,29.7-35.69,47.05-50.89,17.04-14.92,35.34-28.42,54.13-41.37.43-.3.87-.59,1.31-.89,1.55,1.12,3.1,2.24,4.66,3.35-15.48,10.79-30.65,21.95-45.09,33.98-6.74,5.62-13.32,11.43-19.65,17.52-12.91,12.43-24.86,25.88-35.74,40.53-15.84,21.44-28.58,45.3-37.28,70.57-2.69,7.83-5.13,15.87-7.45,24-11.59,40.64-20.78,82.86-51.58,112.3-9.94,9.5-21.62,17.2-33.49,23.81-16.87,9.39-32.64,16.8-47.22,26.39-13.48,8.89-25.64,19.58-37.03,34.73-22.9,30.43-38.83,65.64-66.06,93.24v24.12c2.69-2.19,5.29-4.48,7.77-6.89,10.38-10.11,18.92-21.42,26.71-33.22,19.1-28.99,33.72-61.04,59.53-85.86,22.79-22.04,52.91-32.26,79.29-48.22,7.23-4.37,14.19-9.15,20.62-14.72,32.04-27.79,41.12-71.24,52.49-110.42,3.13-10.91,6.43-21.86,10.49-32.52,5.7-14.98,12.86-29.41,21.31-43.01,4.4-7.03,9.04-13.8,13.91-20.33,14.06-18.86,30.04-35.79,47.52-51.07,17.17-15,35.59-28.58,54.54-41.56.98-.67,1.96-1.32,2.94-1.99,1.63,1.03,3.29,2,4.97,2.94-16.32,11.23-32.3,22.86-47.47,35.45-6.8,5.64-13.44,11.48-19.83,17.58-13.04,12.46-25.15,25.92-36.19,40.61-16.07,21.5-28.99,45.47-37.68,70.92-2.69,7.88-5.11,15.98-7.41,24.18-11.44,40.85-20.37,83.56-51.72,113.01-10.09,9.48-22,17.08-34.04,23.57-17.21,9.27-33.17,16.54-47.82,26.1-13.56,8.87-25.71,19.67-37.03,35.2-23.36,32.05-38.77,69.68-67.57,98.24h0c-4.72,4.68-9.89,9-15.33,12.98v21.73c9.43-5.64,18.36-12.17,26.11-19.88,10.35-10.3,18.78-21.87,26.41-33.95,18.73-29.67,32.74-62.54,58.58-87.72,22.83-22.35,53.4-32.23,80.21-47.94,7.35-4.31,14.44-9.02,20.97-14.57,32.61-27.7,41.43-71.65,52.64-111.12,3.1-11,6.36-22.04,10.42-32.78,5.7-15.09,12.91-29.61,21.44-43.28,4.45-7.07,9.14-13.86,14.06-20.42,14.22-18.95,30.37-35.9,47.98-51.25,17.28-15.07,35.83-28.72,54.94-41.74,2.69-1.84,5.41-3.66,8.13-5.48,1.85.78,3.7,1.55,5.56,2.32-18.5,12.46-36.61,25.37-53.71,39.5-6.85,5.66-13.54,11.52-20,17.63-13.17,12.47-25.45,25.95-36.64,40.68-16.28,21.55-29.38,45.63-38.07,71.27-2.69,7.93-5.1,16.09-7.37,24.36-11.3,41.08-19.96,84.28-51.86,113.73-10.25,9.46-22.38,16.95-34.59,23.33-17.56,9.17-33.72,16.28-48.43,25.82-13.64,8.85-25.79,19.75-37.03,35.66-23.08,32.67-37.68,71.38-66.36,100.53-9.69,9.84-21.32,18.09-33.39,24.83v20.13c3.9-1.86,7.77-3.79,11.57-5.83,11.97-6.49,23.36-14.31,32.89-24,10.32-10.5,18.63-22.32,26.11-34.69,18.35-30.36,31.75-64.06,57.62-89.59,22.85-22.67,53.87-32.2,81.12-47.66,7.48-4.24,14.69-8.89,21.33-14.42,33.18-27.61,41.74-72.07,52.8-111.83,3.06-11.08,6.29-22.22,10.34-33.04,5.69-15.19,12.95-29.81,21.57-43.55,4.5-7.1,9.24-13.93,14.21-20.51,14.38-19.04,30.71-36.02,48.44-51.44,17.41-15.14,36.08-28.86,55.35-41.92,4.95-3.36,9.94-6.67,14.96-9.95,1.68.81,3.34,1.65,4.98,2.52-20.84,13.73-41.24,27.98-60.4,43.73-6.91,5.68-13.65,11.55-20.18,17.68-13.31,12.5-25.74,25.99-37.09,40.76-16.51,21.6-29.79,45.79-38.47,71.61-2.68,7.98-5.07,16.2-7.32,24.54-11.15,41.3-19.56,84.99-52,114.45-10.4,9.44-22.76,16.84-35.14,23.1-17.9,9.05-34.26,16.02-49.03,25.53-13.72,8.84-25.89,19.84-37.04,36.13-22.79,33.29-36.58,73.08-65.14,102.82-10.31,10.73-22.94,19.58-35.98,26.59h.01c-5.13,2.77-10.31,5.3-15.51,7.7v1.52Zm864.81,0v-17.93c-2.44,5.97-4.87,11.95-7.3,17.93h7.3Z"/>
  </g>
</svg>