<?xml version="1.0" encoding="UTF-8"?>
<svg id="Layer_2" data-name="Layer 2" xmlns="http://www.w3.org/2000/svg" viewBox="0 0 2337.61 2337.61">
  <g id="MEI_copy" data-name="MEI copy">
    <path id="MEI" d="m1193.66,1292.25c70.69,13.1,315.34,57.86,315.34,57.86l-11,40.74s-231.49-70.94-305.68-93.68c-.72,1.94-1.64,3.79-2.74,5.51,60.92,46.66,296.02,226.03,296.02,226.03l-32.45,38.13s-205.91-200.27-267.06-259.74c-1.32,1.36-2.76,2.6-4.32,3.68,37.56,76.66,201.6,411.32,201.6,411.32l-50.5,20.94s-127.91-351.8-156.14-429.46c-1.43.61-2.92,1.07-4.46,1.44,4.6,95.57,28.15,584.47,28.15,584.47l-59.51.15s21.63-492.38,25.64-583.84c-.34.01-.67.05-1.01.05-.93,0-1.85-.05-2.76-.14-31.62,100.16-216.69,687.23-216.69,687.23l-61.37-22.9s234.48-573.27,272.22-665.51c-1.02-.32-2.01-.71-2.97-1.14-51.31,69.98-333.02,454.18-454.76,620.21-18.54-13.35-36.48-27.47-53.79-42.31,120.16-138.88,425.32-491.56,502.92-581.24-.8-.61-1.57-1.25-2.3-1.94-64.72,44.9-416.91,289.28-632.6,438.93-14.38-20.15-27.85-40.99-40.36-62.46,207.9-119.01,569.68-326.1,668.11-382.44-.56-.91-1.06-1.85-1.52-2.83-73.15,17.84-470.07,114.62-749.88,182.85-7.14-27.67-12.83-55.93-17-84.66,262.03-36.77,653.89-91.75,764.36-107.25-.1-.98-.16-1.97-.16-2.98,0-.19.02-.37.03-.55-71.06-13.36-458.4-86.21-760.72-143.07,5.75-33.07,13.52-65.45,23.2-97.01,288.93,89.38,674.69,208.72,740.02,228.93.44-.97.93-1.9,1.46-2.8-51.33-39.55-350.64-270.12-614.99-473.77,20.98-27.82,43.72-54.25,68.07-79.09,225,220.02,482.67,471.98,555.81,543.5.37-.24.75-.46,1.13-.69-19.93-40.93-179.28-368.24-340.9-700.21,28.7-14.32,58.38-26.97,88.9-37.83,114.88,318.39,229.22,635.26,263.34,729.81-1.08-23.4-17.19-373.58-35.65-774.94,13.51-.68,27.11-1.03,40.79-1.03,14.96,0,29.83.43,44.6,1.24-16.85,366.25-31.92,693.79-35.93,780.99.45.18.9.38,1.34.58,13.51-43.06,58.1-185.88,58.1-185.88l18.64,6.4s-55.01,135.22-73.69,181.12c1.63,1,3.14,2.16,4.53,3.46,34.35-47.02,137.97-188.52,137.97-188.52l17.58,13.33s-114.29,132.59-153.16,177.68c1.15,1.36,2.16,2.84,3.04,4.4,53.7-37.42,218.76-152.3,218.76-152.3l13.27,23.2s-169.11,97.26-230.41,132.51c.67,1.69,1.19,3.45,1.53,5.28,67.65-16.66,284.59-69.84,284.59-69.84l3.45,33.15s-221.29,31.58-287.58,41.04c0,.31.05.61.05.92,0,1.71-.18,3.37-.46,4.99Zm57.8-1170.72c-36.98,0-65.7,24.6-72.97,61.86h145.27c-5.61-36.91-35-61.86-72.31-61.86ZM2337.61,2.23v2333.16c0,1.23-1,2.23-2.23,2.23H2.23c-1.23,0-2.23-1-2.23-2.23V2.23C0,1,1,0,2.23,0h2333.16c1.23,0,2.23,1,2.23,2.23Zm-900.6,71.86c0,11.95,8.91,21.44,20.47,21.44,10.9,0,19.81-9.49,19.81-21.44s-8.91-21.09-19.81-21.09c-11.56,0-20.47,9.49-20.47,21.09Zm5.94,46.75v184.53h28.39V120.83h-28.39Zm-293.52,81.19c0,60.46,44.57,107.55,103.34,107.55,32.69,0,63.72-14.41,84.52-43.23l-22.12-16.52c-14.86,20.74-36.65,32.34-61.74,32.34-40.94,0-72.31-30.23-76.27-72.05h174.66c.33-3.51.66-6.33.66-9.49,0-60.81-43.25-106.15-101.36-106.15s-101.69,47.45-101.69,107.55Zm-349.65,103.34h28.06v-132.86c0-30.23,16.51-50.26,44.9-50.26,25.75,0,43.25,17.57,43.25,50.26v132.86h28.06v-132.86c0-30.23,16.84-50.26,45.89-50.26,25.09,0,42.26,20.03,42.26,50.26v132.86h28.06v-138.49c0-43.23-27.07-72.41-67.35-72.41-29.39,0-49.2,15.47-60.09,34.09-8.58-19.33-26.41-34.09-55.47-34.09-21.46,0-40.28,9.84-51.18,26.36v-22.14h-26.41v206.67Zm1265.82,976.19c0-495.24-402.91-898.15-898.15-898.15s-898.15,402.91-898.15,898.15,402.91,898.15,898.15,898.15,898.15-402.91,898.15-898.15Z"/>
  </g>
</svg>