<?xml version="1.0" encoding="UTF-8"?>
<svg id="Layer_2" data-name="Layer 2" xmlns="http://www.w3.org/2000/svg" viewBox="0 0 2473.82 671.29">
  <g id="OKF">
    <g id="AE_GOOD" data-name="AE GOOD">
      <path d="m0,45.5c0-3.7,2.91-6.7,6.5-6.7h436.84c.13,0,.26,0,.39,0,12.01-.08,23.08-5.81,30.63-14.99-.02.5-.04,1.01-.04,1.52,0,21.01,16.44,36.54,37.46,36.54h272.26c21.93,0,37.46-15.53,37.46-36.54,0-9.76-3.36-18.34-9.15-24.73,20.49,3.07,35.3,17.92,37.95,38.2h175.19c.2-1.5.48-2.96.82-4.4,3.98,16.26,18.52,27.47,36.38,27.47h89.54c21.93,0,37.46-15.53,37.46-36.54,0-8.86-2.77-16.73-7.6-22.89,16.35,5.29,27.78,18.78,30.07,36.36h162.72c2,5.2,5.15,9.75,9.17,13.4h-171.91c-2.54,18.9-15.66,33.04-34.09,37.28-6.54-5.87-15.46-9.33-25.81-9.33h-89.54c-6.05,0-11.72,1.29-16.73,3.63-10.98-6.8-18.54-18.05-20.44-31.58h-175.24c-1.56,11.61-7.12,21.42-15.44,28.25-1.66-.19-3.36-.3-5.11-.3h-344.13c-3.25-2.71-6.09-5.84-8.43-9.37-7.47-11.26-19.79-18.5-33.31-18.58-.11,0-.23,0-.34,0H6.5c-3.59,0-6.5-3-6.5-6.7Zm2467.32,573.43h-586.33c-.1,0-.2,0-.3,0-13.39-.07-25.62-7.25-32.93-18.46-5.83-8.94-14.85-15.41-25.87-18.29-3.66,16.47-17.74,27.87-36.51,27.87h-89.54c-8.5,0-16.25-2.54-22.47-6.96-2.7,4.76-4.56,10.09-5.39,15.84h-39.84c-3.12-22.64-21.46-38.43-45.89-38.43h-.31c-3.05,17.37-17.44,29.55-36.85,29.55h-135.22c-4.81,0-9.38-.82-13.56-2.33-1.48,3.51-2.54,7.26-3.11,11.21h-181.08c-2.1-15.23-11.1-27.36-24.19-33.66-4.65,14.79-18.11,24.78-35.69,24.78h-89.54c-11.42,0-21.48-4.59-28.29-12.15-4.6,5.93-7.71,13.08-8.86,21.03h-175.28c-2.39-17.35-13.72-30.67-29.88-35.95-3.93,16.04-17.86,27.06-36.34,27.06h-272.26c-12.7,0-23.73-5.68-30.47-14.81-1.48,1.62-2.86,3.34-4.09,5.18-7.49,11.22-19.78,18.44-33.27,18.52-.1,0-.2,0-.3,0H6.5c-3.59,0-6.5,3-6.5,6.7s2.91,6.7,6.5,6.7h436.69c.14,0,.29,0,.43,0,13.57.1,25.95,7.36,33.38,18.72,8.1,12.38,22.26,20.25,39.05,20.25h288.31c24.62,0,43.04-16.04,45.95-38.97h175.15c3,22.61,21.74,38.97,45.93,38.97h94.81c24.62,0,43.04-16.04,45.95-38.97h180.95c3,22.61,21.74,38.97,45.93,38.97h143.19c24.62,0,43.04-16.04,45.95-38.97h39.71c3,22.61,21.74,38.97,45.93,38.97h94.81c17.17,0,31.34-7.8,39.32-20.3,7.25-11.35,19.58-18.56,33.04-18.66.14,0,.29,0,.43,0h585.87c3.59,0,6.5-3,6.5-6.7s-2.91-6.7-6.5-6.7ZM1582.55,25.33c0,21.01-15.53,36.54-37.46,36.54h-135.22c-5.46,0-10.6-1.06-15.24-2.98,2.52,8.48,7.38,15.78,13.94,21.25h72.56c11.11,0,20.57,3.99,27.2,10.65h73.91c24.49,0,42.85-15.87,45.91-38.6h87.53c-4.01-3.65-7.16-8.2-9.17-13.4h-78.34c-2.98-22.84-21.37-38.8-45.93-38.8h-9.41c6.13,6.45,9.71,15.25,9.71,25.33Zm514.37,0c0,21.01-15.53,36.54-37.46,36.54h-317.94c-9.73,0-18.48-3.34-25.08-9.01,1.72,11.06,7.22,20.55,15.29,27.28h373.41c6.88,0,13.13,1.53,18.47,4.28,5.88-3.41,10.81-8.06,14.46-13.7,7.29-11.26,19.56-18.45,32.97-18.53.11,0,.23,0,.34,0h295.94c3.59,0,6.5-3,6.5-6.7s-2.91-6.7-6.5-6.7h-295.77c-.13,0-.26,0-.39,0-13.44-.09-25.74-7.3-33.01-18.6-8-12.44-22.12-20.2-39.25-20.2h-11.7c6.13,6.45,9.71,15.25,9.71,25.33Zm370.41,496.91h-586.28c-.1,0-.21,0-.32,0-13.4-.08-25.64-7.26-32.95-18.49-5.69-8.74-14.43-15.13-25.1-18.11-1.63,19.21-16.62,33.04-37.3,33.04h-89.54c-9.42,0-17.91-3.13-24.43-8.46-1.66,3.74-2.83,7.77-3.44,12.02h-107.54c-2.93-21.41-19.45-36.7-41.87-38.34-.85,20.11-16.11,34.78-37.42,34.78h-135.22c-6.8,0-13.11-1.63-18.55-4.54-.87,2.59-1.51,5.3-1.91,8.1h-113.34c-2.02-14.81-10.55-26.69-23.03-33.15-3.03,17.39-17.43,29.59-36.86,29.59h-89.54c-12.63,0-23.6-5.61-30.35-14.65-3.48,5.33-5.85,11.48-6.81,18.21h-126.89c-2.46-17.99-14.52-31.66-31.62-36.54-1.66,19.18-16.63,32.98-37.3,32.98h-363.62c-14.88,0-27.45-7.79-33.54-19.79-1.35,1.52-2.61,3.11-3.74,4.81-7.48,11.23-19.78,18.46-33.28,18.54-.11,0-.21,0-.32,0H6.5c-3.59,0-6.5,3-6.5,6.7s2.91,6.7,6.5,6.7h388.37c.14,0,.28,0,.42,0,13.56.1,25.93,7.36,33.37,18.69,8.11,12.35,22.25,20.21,39.02,20.21h6.67c0-.35-.03-.69-.03-1.05,0-21.01,16.44-36.54,37.46-36.54h272.26c21.93,0,37.46,15.53,37.46,36.54,0,.35-.02.7-.02,1.05h31.27c24.6,0,43.01-16.01,45.95-38.91h126.79c.84,6.29,2.91,12.1,5.97,17.2,6.65-9.76,18.04-15.89,31.24-15.89h89.54c20.33,0,35.16,13.36,37.21,32.06,12.4-6.56,20.83-18.52,22.73-33.37h113.24c3.03,22.58,21.76,38.91,45.93,38.91h1.1c0-.35-.03-.69-.03-1.05,0-21.01,16.44-36.54,37.46-36.54h135.22c5.33,0,10.27.92,14.71,2.61.27-1.28.5-2.59.67-3.93h107.45c.49,3.67,1.4,7.16,2.68,10.45,6.61-5.75,15.43-9.14,25.24-9.14h89.54c21.62,0,37.01,15.1,37.44,35.66,10.72-3.03,19.48-9.5,25.14-18.34,7.25-11.33,19.58-18.54,33.03-18.64.14,0,.28,0,.42,0h585.92c3.59,0,6.5-3,6.5-6.7s-2.91-6.7-6.5-6.7Zm0-386.75h-247.44c-.13,0-.25,0-.38,0-13.43-.09-25.72-7.29-33-18.58-8-12.42-22.11-20.16-39.22-20.16h-10.21c3.54,5.65,5.53,12.44,5.53,19.94,0,21.01-15.53,36.54-37.46,36.54h-409.3c-14.01,0-25.99-6.91-32.41-17.75h-102.97c-3-22.8-21.38-38.74-45.93-38.74h-1.46c3.54,5.65,5.53,12.44,5.53,19.94,0,21.01-15.53,36.54-37.46,36.54h-135.22c-14.01,0-25.99-6.91-32.41-17.75h-101.35c-2.1-15.98-11.77-28.58-25.81-34.69,2.16,4.74,3.35,10.11,3.35,15.9,0,21.01-15.53,36.54-37.46,36.54h-89.54c-16.87,0-30.79-10.02-35.63-24.85-.69,2.29-1.23,4.65-1.56,7.1h-126.83c-2.6-19.78-16.78-34.38-36.5-37.91,3.22,5.48,5.02,11.98,5.02,19.11,0,21.01-15.53,36.54-37.46,36.54h-363.62c-20.92,0-37.31-15.4-37.45-36.27-7.46,11.23-19.77,18.43-33.26,18.52-.13,0-.25,0-.38,0H6.5c-3.59,0-6.5,3-6.5,6.7s2.91,6.7,6.5,6.7h388.58c.12,0,.24,0,.36,0,13.52.08,25.85,7.33,33.32,18.6.93,1.4,1.94,2.74,3.02,4.02h78.18c13.84,0,25.13,6.19,31.57,16.04h213c6.64-9.85,18.07-16.04,31.34-16.04h89.54c4.28,0,8.31.6,12.03,1.71,5.98-6.46,9.95-14.79,11.22-24.33h126.85c1.63,11.71,7.5,21.71,16.15,28.61,5.96-3.82,13.18-5.99,21.03-5.99h89.54c12.67,0,23.19,5.19,29.83,13.62,16.32-5.27,27.75-18.71,30.08-36.24h113.3c1.21,8.66,4.74,16.39,9.99,22.62h54.34c13.84,0,25.13,6.19,31.57,16.04h93.18c24.51,0,42.88-15.9,45.92-38.66h107.5c1.41,10.09,5.96,18.91,12.72,25.57,4.62-1.9,9.74-2.95,15.17-2.95h89.54c13.84,0,25.13,6.19,31.57,16.04h330.34c17.08,0,31.18-7.72,39.19-20.11,7.28-11.27,19.56-18.47,32.98-18.55.12,0,.24,0,.36,0h247.51c3.59,0,6.5-3,6.5-6.7s-2.91-6.7-6.5-6.7Zm0,96.69h-586.12c-10.07,0-19.79-2.73-28.3-7.69-4.63-15.01-16.52-25.98-32.33-29.65,1.46,4.05,2.25,8.49,2.25,13.22,0,21.01-15.53,36.54-37.46,36.54h-89.54c-11.55,0-21.72-4.7-28.53-12.42h-203.61c-2.74-20.59-18.03-35.57-39.06-38.25,1.68,4.29,2.6,9.05,2.6,14.12,0,21.01-15.53,36.54-37.46,36.54h-144.35c-11.55,0-21.72-4.7-28.54-12.42h-4.74c-2.01-15.09-10.76-27.17-23.57-33.59.73,3,1.12,6.16,1.12,9.47,0,21.01-15.53,36.54-37.46,36.54h-89.54c-15.88,0-29.14-8.87-34.68-22.27-1.17,3.11-2.02,6.41-2.5,9.85h-78.47c-2.63-19.79-16.86-34.39-36.63-37.87,1.59,4.2,2.46,8.82,2.46,13.75,0,21.01-15.53,36.54-37.46,36.54h-89.54c-11.55,0-21.72-4.7-28.53-12.42h-197.3c-1.37-10.29-5.88-19.17-12.66-25.82.02.56.04,1.13.04,1.7,0,21.01-15.53,36.54-37.46,36.54h-89.54c-20.35,0-36.41-14.57-37.41-34.57-.93,1.14-1.82,2.31-2.64,3.54-7.46,11.28-19.8,18.52-33.32,18.61-.12,0-.24,0-.36,0H6.5c-3.59,0-6.5,3-6.5,6.7s2.91,6.7,6.5,6.7h340.16c.12,0,.25,0,.37,0,12.99.08,24.87,6.77,32.4,17.29h84.85c16.22,0,28.93,8.5,34.45,21.43h15.39c24.54,0,42.92-15.93,45.92-38.73h200.36c2.72,19.69,17.39,34.58,37.17,37.99,5.9-12.51,18.74-20.69,33.98-20.69h89.54c6.46,0,12.36,1.36,17.48,3.8,4.46-5.92,7.42-13.08,8.48-21.09h78.46c1.4,10.16,5.99,19.03,12.81,25.71,6.51-5.31,14.98-8.42,24.37-8.42h143.53c3.04-5.1,5.08-10.93,5.92-17.3h6.86c.88,6.34,2.99,12.18,6.11,17.3h100.7c16.22,0,28.93,8.5,34.45,21.43h57.5c24.54,0,42.92-15.93,45.92-38.73h204.24c1.15,8.31,4.43,15.76,9.31,21.86,5.45-2.92,11.77-4.56,18.58-4.56h152.83c1.77-2.96,3.2-6.17,4.25-9.59,8.52-4.97,18.25-7.71,28.33-7.71h586.08c3.59,0,6.5-3,6.5-6.7s-2.91-6.7-6.5-6.7Zm0,193.38h-586.23c-.11,0-.22,0-.33,0-13.4-.08-25.66-7.27-32.96-18.51-5.67-8.73-14.38-15.12-25.02-18.12.03.61.04,1.23.04,1.86,0,21.01-15.53,36.54-37.46,36.54h-89.54c-10.19,0-19.3-3.66-25.99-9.82-.86,2.58-1.49,5.27-1.89,8.05h-204.28c-2.67-19.71-16.86-34.25-36.57-37.74.07.98.12,1.96.12,2.97,0,21.01-15.53,36.54-37.46,36.54h-144.35c-9.61,0-18.26-3.26-24.82-8.79-.69,2.26-1.23,4.6-1.57,7.02h-6.9c-1.98-14.61-10.29-26.38-22.48-32.91-.89,20.06-16.14,34.68-37.41,34.68h-89.54c-13.77,0-25.57-6.67-32.08-17.17-2.55,4.65-4.3,9.83-5.09,15.4h-78.5c-2.56-18.93-15.75-33.08-34.24-37.27.05.82.08,1.65.08,2.49,0,21.01-15.53,36.54-37.46,36.54h-89.54c-9.25,0-17.61-3.01-24.07-8.17-.6,2.07-1.07,4.2-1.38,6.4h-200.4c-1.44-10.65-6.25-19.79-13.46-26.5-3.52,16.68-17.67,28.26-36.6,28.26h-89.54c-17.15,0-31.26-10.35-35.86-25.58-1.5,1.64-2.89,3.39-4.13,5.25-7.48,11.25-19.79,18.48-33.3,18.56-.11,0-.22,0-.33,0H6.5c-3.59,0-6.5,3-6.5,6.7s2.91,6.7,6.5,6.7h340.05c.13,0,.27,0,.4,0,13.55.1,25.91,7.35,33.36,18.67,8.11,12.33,22.25,20.17,39,20.17h9.59c2.09-18.77,17.67-32.2,37.21-32.2h92.6c.6-2.14,1.05-4.36,1.35-6.64h200.33c.31,2.28.79,4.5,1.41,6.64h67.93c20.39,0,35.24,13.43,37.22,32.2h34.17c24.58,0,42.98-15.98,45.94-38.85h78.43c1.01,7.49,3.76,14.28,7.85,20.02,6.81-8.29,17.33-13.37,29.35-13.37h89.54c18.49,0,32.44,11.05,36.35,27.11,12.85-6.45,21.62-18.59,23.58-33.76h6.83c3.05,22.55,21.77,38.85,45.92,38.85h43.8c2.09-18.77,17.67-32.2,37.21-32.2h116.45c.6-2.14,1.05-4.36,1.35-6.64h204.21c.7,5.15,2.22,9.97,4.43,14.35,6.38-4.88,14.51-7.71,23.48-7.71h89.54c19.73,0,34.27,12.57,36.99,30.4,10.91-2.97,19.82-9.48,25.56-18.42,7.26-11.32,19.57-18.52,33.02-18.62.13,0,.27,0,.4,0h585.97c3.59,0,6.5-3,6.5-6.7s-2.91-6.7-6.5-6.7Zm0-96.69h-295.93c-.12,0-.23,0-.35,0-13.41-.08-25.68-7.27-32.97-18.53-8.01-12.37-22.1-20.08-39.17-20.08h-3.04c.69,2.91,1.05,5.97,1.05,9.17,0,21.01-15.53,36.54-37.46,36.54h-363.62c-10.8,0-20.39-4.11-27.17-10.96-.29,1.27-.53,2.56-.71,3.87h-271.99c-2.51-18.67-15.34-32.71-33.41-37.14.48,2.46.73,5.03.73,7.69,0,21.01-15.53,36.54-37.46,36.54h-263.12c-14.84,0-27.4-7.76-33.5-19.71-1.79,3.91-3.05,8.13-3.68,12.62h-30.11c-2.7-20.14-17.42-34.89-37.77-38,.59,2.72.92,5.58.92,8.55,0,21.01-15.53,36.54-37.46,36.54h-89.54c-8.63,0-16.49-2.62-22.75-7.17,0,.03,0,.05-.01.07h-297.13c-1.22-9.07-4.87-17.04-10.38-23.35-2.7,17.85-17.25,30.45-37,30.45h-89.53c-19.59,0-35.21-13.51-37.23-32.37-2.04,2.04-3.88,4.27-5.48,6.69-7.47,11.26-19.79,18.5-33.31,18.59-.11,0-.23,0-.34,0H6.5c-3.59,0-6.5,3-6.5,6.7s2.91,6.7,6.5,6.7h291.73c.13,0,.26,0,.39,0,13.54.09,25.89,7.34,33.34,18.65,8.11,12.31,22.24,20.14,38.97,20.14h13.28c4.2-15.9,18.6-26.82,36.21-26.82h88.05c1.56-3.71,2.65-7.72,3.21-11.97h297.09c.58,4.23,1.71,8.24,3.33,11.97h63.31c18.38,0,32.26,10.91,36.27,26.82h37.82c24.56,0,42.95-15.95,45.93-38.78h30.07c1.2,8.76,4.77,16.57,10.1,22.85,6.77-6.8,16.33-10.88,27.09-10.88h89.54c18.38,0,32.26,10.91,36.27,26.82h20.71c4.2-15.9,18.6-26.82,36.21-26.82h144.35c1,0,1.99.04,2.96.11,1.59-3.74,2.69-7.79,3.25-12.07h271.95c.91,6.68,3.21,12.81,6.61,18.13,6.01-3.92,13.32-6.16,21.29-6.16h89.54c18.38,0,32.26,10.91,36.27,26.82h277.27c17.12,0,31.24-7.76,39.24-20.19,7.27-11.3,19.57-18.5,33.01-18.6.13,0,.26,0,.39,0h295.78c3.59,0,6.5-3,6.5-6.7s-2.91-6.7-6.5-6.7Z"/>
    </g>
  </g>
</svg>