<?xml version="1.0" encoding="UTF-8"?>
<svg id="Layer_2" data-name="Layer 2" xmlns="http://www.w3.org/2000/svg" viewBox="0 0 272.74 365.46">
  <defs>
    <style>
      .cls-1 {
        fill: blue;
      }
    </style>
  </defs>
  <g id="Layer_15" data-name="Layer 15">
    <path id="FRAME" class="cls-1" d="m240.64,354.87H32.93c-10.58,0-19.16-8.58-19.16-19.16v-207.71c0-10.58,8.58-19.16,19.16-19.16h207.71c10.58,0,19.16,8.58,19.16,19.16v207.71c0,10.58-8.58,19.16-19.16,19.16Zm29.75-256.61H3.18v267.2h267.2V98.26h0Z"/>
    <path id="TITLE" class="cls-1" d="m207.81,1.59h-27.4c-.38,0-.76-.08-1.14-.08l-1.14.08h-64.93c-6.21,0-10.82,4.69-10.82,10.9v20.43c0,6.21,4.62,10.82,10.82,10.82h27.85c1.66,0,2.65.98,2.65,2.65l-.08,3.86c0,1.66-.98,2.65-2.65,2.65h-43.29c-1.66,0-2.65-.98-2.65-2.65l-.08-39.35c.08-6.21-4.62-10.9-10.82-10.9h-16.72c-4.62,0-8.63,2.5-10.52,6.74l-17.41,36.4L18.31.15H0l30.5,61.75c3.94,8.17,14.38,8.1,18.39-.15l20.66-43.36c.61-1.36,1.66-1.97,3.1-1.97h3.33c1.66,0,2.65.98,2.65,2.65l.08,39.43c0,6.21,4.62,10.9,10.82,10.9h59.71c6.21,0,10.9-4.69,10.9-10.9v-20.28c0-6.21-4.69-10.9-10.9-10.9h-27.77c-1.66,0-2.65-.98-2.65-2.65v-4.01c0-1.66.98-2.65,2.65-2.65h49.64v40.94c0,6.21,4.62,10.9,10.82,10.9h24.07c4.62,0,8.63-2.5,10.52-6.74l17.56-37.01,20.51,42.91h18.16l-29.44-61.75c-4.01-8.25-14.45-8.32-18.47-.08l-21.87,46.16h-12.79c-1.66,0-2.65-.98-2.65-2.65V18.01h20.28V1.59Z"/>
    <g>
      <path class="cls-1" d="m140.57,231.91c2.96,0,5.92,0,8.88-.03,25.09-.16,50.18-.82,75.27-2.04v-45.84l-64.29,37.11c16.57-16.12,33.46-31.94,50.67-47.43,4.51-4.05,9.06-8.07,13.62-12.06v-11.18h-15.4c-3.35,3.8-6.72,7.6-10.1,11.37-17.76,19.73-35.94,39.03-54.53,57.94l40.01-69.31h-42.25c-1.09,24.49-1.7,48.98-1.86,73.47-.02,2.66-.02,5.33-.03,7.99Z"/>
      <path class="cls-1" d="m48.85,163.53c2.98,2.63,5.96,5.25,8.92,7.9,18.01,16.23,35.7,32.8,53.06,49.68l-61.99-35.78v44.65c24.32,1.09,48.64,1.72,72.96,1.89,2.3.02,4.61.02,6.91.03,0-3.33-.02-6.68-.05-10.02-.17-23.81-.78-47.62-1.85-71.43h-40.26l40.01,69.28c-19.34-19.69-38.29-39.78-56.79-60.32-2.67-2.98-5.33-5.96-7.97-8.96h-12.97v13.08Z"/>
      <path class="cls-1" d="m224.72,312.71c-5.19-4.53-10.34-9.09-15.47-13.69-19.73-17.76-39.04-35.95-57.94-54.54l73.41,42.39v-41.04c-24.7-1.19-49.4-1.85-74.1-2.03-3.35-.02-6.7-.03-10.05-.04,0,2.31.02,4.61.04,6.92.15,21.77.68,43.54,1.61,65.32h39.94l-32.21-55.78c16.13,16.58,31.94,33.46,47.43,50.68,1.52,1.69,3.01,3.4,4.52,5.1h22.82v-3.29Z"/>
      <path class="cls-1" d="m48.85,310.81v5.19h20.4c.8-.9,1.59-1.8,2.39-2.7,16.22-18.02,32.79-35.7,49.68-53.06l-32.2,55.76h37.95c.9-21.09,1.42-42.18,1.59-63.27.03-2.98.05-5.98.06-8.96-2.7,0-5.39.02-8.07.04-23.93.19-47.86.81-71.8,1.89v39.85l71.09-41.05c-19.7,19.34-39.79,38.29-60.33,56.79-3.57,3.19-7.17,6.36-10.76,9.52Z"/>
    </g>
  </g>
</svg>