<?xml version="1.0" encoding="UTF-8"?>
<svg id="Layer_2" data-name="Layer 2" xmlns="http://www.w3.org/2000/svg" viewBox="0 0 92.5 92.5">
  <defs>
    <style>
      .cls-1 {
        fill: none;
        stroke: #000;
        stroke-miterlimit: 10;
        stroke-width: 6.5px;
      }
    </style>
  </defs>
  <g id="Layer_1-2" data-name="Layer 1">
    <g>
      <path d="m46.25,3.25c-7.2,0-13.99,1.78-19.95,4.91h39.91c-5.96-3.13-12.75-4.91-19.95-4.91ZM10.13,69.56c.61.94,1.24,1.85,1.92,2.74V20.2c-.68.89-1.31,1.8-1.92,2.74v46.63Zm-1.97-3.36V26.3c-3.13,5.96-4.91,12.75-4.91,19.95s1.78,13.99,4.91,19.95Zm38.09,23.05c7.2,0,13.99-1.78,19.95-4.91H26.3c5.96,3.13,12.75,4.91,19.95,4.91ZM69.57,10.13H22.93c-.94.61-1.85,1.24-2.74,1.92h52.11c-.88-.68-1.8-1.31-2.74-1.92Zm10.88,62.18c.68-.88,1.31-1.8,1.92-2.74V22.93c-.61-.94-1.24-1.85-1.92-2.74v52.11Zm-5.78-58.32H17.84c-1.36,1.2-2.65,2.49-3.85,3.85v56.82c1.2,1.36,2.49,2.65,3.85,3.85h56.83c1.36-1.2,2.64-2.48,3.84-3.84V17.83c-1.2-1.36-2.48-2.64-3.84-3.84Zm-9.15,43c-4.67,7.24-9.61,10.85-14.82,10.85-1.79,0-3.36-.6-4.7-1.8-1.34-1.2-2.21-2.83-2.6-4.89-.17-.82-.25-2.23-.25-4.23-3.3,7.28-7.47,10.92-12.51,10.92-2.24,0-4.09-.71-5.54-2.12-1.46-1.41-2.18-3.21-2.18-5.38,0-2.88.78-6.21,2.35-9.97l5.04-12.18c.84-2.06,1.26-3.74,1.26-5.03,0-1.59-.64-2.38-1.93-2.38-1.12,0-2.55.78-4.28,2.33-1.74,1.56-3.05,3.24-3.95,5.06-.28.65-.59.97-.92.97s-.5-.23-.5-.7c0-1.06,1.09-2.76,3.27-5.11,2.91-3.11,5.9-4.67,8.98-4.67,4.09,0,6.13,1.7,6.13,5.09,0,2.34-.9,5.59-2.69,9.75l-4.95,11.42c-1.29,2.99-1.93,5.47-1.93,7.47,0,2.46.95,3.69,2.85,3.69,4.65,0,9.4-6.15,14.27-18.44l4.28-10.8,1.6-5.01c.17-.7.56-1.08,1.18-1.14l1.01-.09,2.02-.26,2.35-.44c.62-.12.87-.18.76-.18.45,0,.67.18.67.53,0,.23-.11.47-.34.7-.28.59-.59,1.32-.92,2.2l-7.89,20.69c-1.23,3.23-1.85,5.87-1.85,7.92,0,2.88,1.2,4.31,3.61,4.31,4.03,0,8.42-4.14,13.18-12.41,3.53-6.16,5.29-12.12,5.29-17.87,0-1.29-.36-1.94-1.07-1.94-.11,0-.39.07-.82.2-.11.04-.33.07-.66.07-1.6,0-2.39-.73-2.39-2.2,0-.88.33-1.64.99-2.29.66-.64,1.47-.97,2.4-.97,2.16,0,3.23,1.74,3.23,5.21,0,8.18-2.34,15.88-7.01,23.12Zm-42.59,25.38h46.63c.94-.61,1.85-1.24,2.74-1.92H20.2c.88.68,1.8,1.31,2.74,1.92Zm61.4-56.08v39.92c3.13-5.97,4.91-12.75,4.91-19.96s-1.78-13.99-4.91-19.96Z"/>
      <circle class="cls-1" cx="46.25" cy="46.25" r="43"/>
    </g>
  </g>
</svg>